<svg width="520" height="323" viewBox="0 0 520 323" fill="none" xmlns="http://www.w3.org/2000/svg">
<path d="M198.546 41.8471H327.455C331.175 41.8471 334.514 40.1925 336.835 37.5739C338.927 35.2142 340.2 32.0654 340.2 28.6172V7.13788C340.2 4.23691 337.931 1.8 335.029 1.8H190.971C188.069 1.8 185.8 4.23685 185.8 7.13788V28.6172C185.8 35.8771 191.461 41.8471 198.546 41.8471Z" fill="#66525B" stroke="white" stroke-width="2.4"/>
<path d="M1.07341 33.4318C0.48965 22.0004 9.60105 12.4119 21.0474 12.4119H498.876C510.351 12.4119 519.473 22.0466 518.846 33.5045L504.041 304.093C503.461 314.698 494.692 323 484.071 323H34.8653C24.2161 323 15.4344 314.655 14.8913 304.02L1.07341 33.4318Z" fill="white"/>
<path d="M499.684 21.4518H20.4835C13.6055 21.4518 8.13491 27.2213 8.50048 34.0896L22.7807 302.381C23.1197 308.751 28.3841 313.743 34.7637 313.743H484.384C490.746 313.743 496.002 308.778 496.364 302.426L511.664 34.135C512.057 27.2502 506.58 21.4518 499.684 21.4518Z" fill="#F6BE1E" stroke="#66525B" stroke-width="8"/>
<path d="M26.6949 51.4249C26.3722 45.6903 30.9355 40.863 36.6792 40.863H482.696C488.456 40.863 493.025 45.7158 492.678 51.4649L478.616 284.699C478.297 289.979 473.923 294.097 468.634 294.097H49.8043C44.4997 294.097 40.1181 289.955 39.8201 284.659L26.6949 51.4249Z" fill="#EA8903"/>
<path d="M327.454 45.351H198.546C192.169 45.351 187 39.2922 187 31.818V7.65491C187 5.08405 188.778 3 190.971 3H335.029C337.222 3 339 5.08405 339 7.65491V31.818C339 35.361 337.838 38.5861 335.937 40.9982C333.828 43.6749 330.808 45.351 327.454 45.351Z" fill="#66525B"/>
<g style="mix-blend-mode:multiply" opacity="0.44">
<path d="M327.454 40.607H198.546C192.169 40.607 187 34.5482 187 27.074V31.8201C187 39.294 192.169 45.3531 198.546 45.3531H327.454C330.808 45.3531 333.828 43.677 335.937 41.0004C337.838 38.5879 339 35.3631 339 31.8201V27.074C339 30.617 337.838 33.8421 335.937 36.2542C333.828 38.9309 330.808 40.607 327.454 40.607Z" fill="#66525B"/>
</g>
<path d="M215.821 27.2565H219.181V30.6885L216.397 32.2965H209.605L206.821 30.6885V16.8645L209.605 15.2565H216.397L219.181 16.8645V20.2965H215.821V18.1365H210.181V29.4165H215.821V27.2565ZM235.761 32.1765H232.065L228.465 25.8405H226.377V32.1765H223.017V15.3765H232.113L234.897 16.9845V24.2325L232.113 25.8405L235.761 32.1765ZM226.377 18.2565V22.9605H231.537V18.2565H226.377ZM242.338 24.9765V29.2965H249.034V32.1765H238.978V15.3765H249.034V18.2565H242.338V22.0965H247.594V24.9765H242.338ZM241.858 13.3365L244.114 10.2645H248.194L244.738 13.3365H241.858ZM265.229 30.5685L262.445 32.1765H252.149V15.3765H262.445L265.229 16.9845V30.5685ZM255.509 18.2565V29.2965H261.869V18.2565H255.509ZM269.306 32.1765V15.3765H272.666V32.1765H269.306ZM283.191 18.2565V32.1765H279.831V18.2565H275.295V15.3765H287.727V18.2565H283.191ZM303.456 30.6885L300.672 32.2965H293.16L290.376 30.6885V16.8645L293.16 15.2565H300.672L303.456 16.8645V30.6885ZM293.736 18.1365V29.4165H300.096V18.1365H293.736ZM307.532 23.6565V16.8645L310.316 15.2565H316.388L319.172 16.8645V20.0565H315.812V18.1365H310.892V22.1445H316.388L319.172 23.7525V30.6885L316.388 32.2965H310.076L307.292 30.6885V27.4965H310.652V29.4165H315.812V25.2645H310.316L307.532 23.6565Z" fill="white"/>
</svg>
