<svg width="248" height="207" viewBox="0 0 248 207" fill="none" xmlns="http://www.w3.org/2000/svg">
<ellipse cx="227" cy="33.5027" rx="20" ry="21.157" fill="#15383E"/>
<path d="M53.9378 39.357H176.061C179.582 39.357 182.756 37.8709 184.973 35.4971C186.973 33.3568 188.198 30.4896 188.198 27.3401V8.02646C188.198 5.29643 185.964 3.10579 183.236 3.10579H46.7619C44.0342 3.10579 41.8 5.29636 41.8 8.02646V27.3401C41.8 33.9895 47.247 39.357 53.9378 39.357Z" fill="#66525B" stroke="white" stroke-width="2.4"/>
<path d="M227 27C217.035 27 206.152 27 206.152 27H19.7238C10.4835 27 3 32.8132 3 39.9861L8.81686 194.014C8.81686 201.187 16.3004 207 25.5406 207H204.704C213.942 207 221.428 201.187 221.428 194.014L226.841 50.7117C226.846 50.7117 226.851 50.7117 226.855 50.7117L227 46.866C227 46.866 227 39.37 227 30.5021V27Z" fill="#15383E"/>
<path d="M228.199 31.8592L228.2 31.8361V31.813C228.2 27.7897 226.014 24.2415 222.681 21.7648L222.681 21.7646C219.446 19.3631 215.07 17.9152 210.295 17.9152H19.7055C14.8522 17.9152 10.4151 19.4082 7.16524 21.8786C3.91443 24.3498 1.8 27.8508 1.8 31.8128V31.8359L1.80089 31.859L7.6108 182.441C7.61925 186.394 9.73172 189.886 12.976 192.352C16.2259 194.822 20.663 196.315 25.5163 196.315H204.484C209.336 196.315 213.773 194.822 217.023 192.352C220.267 189.886 222.381 186.394 222.389 182.441L227.795 42.3463L227.795 42.3461L228.089 34.7211L228.199 31.8592Z" fill="#66525B" stroke="white" stroke-width="2.4"/>
<path d="M223.512 31.8117L220.06 121.258L219.36 139.441L218.724 155.91L217.701 182.416C217.701 187.957 211.771 192.464 204.482 192.464H25.5142C18.2276 192.464 12.2949 187.957 12.2949 182.416L11.3799 158.726L6.48438 31.8114C6.48438 26.2708 12.4171 21.7637 19.7037 21.7637H210.293C213.765 21.7637 217.048 22.7794 219.532 24.6234C222.1 26.5291 223.512 29.0844 223.512 31.8117Z" fill="url(#paint0_linear_414_2227)"/>
<g style="mix-blend-mode:multiply">
<path d="M31.427 184.072C27.1207 184.072 23.6174 181.41 23.6174 178.137L17.8066 36.0911C17.8066 32.818 21.31 30.1552 25.6162 30.1552H204.382C206.434 30.1552 208.372 30.7549 209.838 31.8441C211.356 32.9709 212.192 34.4791 212.192 36.0911L206.381 178.137C206.381 181.41 202.878 184.072 198.572 184.072H31.427Z" fill="#F3B516"/>
</g>
<path d="M176.062 37.9985H53.9379C47.8972 37.9985 43 33.4208 43 27.7736V9.51704C43 7.57462 44.6844 6 46.762 6H183.238C185.316 6 187 7.57462 187 9.51704V27.7736C187 30.4505 185.899 32.8873 184.098 34.7098C182.1 36.7322 179.239 37.9985 176.062 37.9985Z" fill="#66525B"/>
<g style="mix-blend-mode:multiply" opacity="0.44">
<path d="M176.062 34.4144H53.9379C47.8972 34.4144 43 29.8367 43 24.1895V27.7754C43 33.4224 47.8969 38.0004 53.9379 38.0004H176.062C179.239 38.0004 182.1 36.734 184.098 34.7116C185.9 32.8888 187 30.4523 187 27.7754V24.1895C187 26.8664 185.9 29.3032 184.098 31.1256C182.1 33.148 179.239 34.4144 176.062 34.4144Z" fill="#66525B"/>
</g>
<path d="M59.7705 30V13.2H68.6265L71.4105 14.808V22.296L68.6265 23.904H63.1305V30H59.7705ZM63.1305 16.08V21.024H68.0505V16.08H63.1305ZM82.5465 13.2L88.5465 30H85.2345L83.9625 26.376H77.6745L76.4025 30H73.0905L79.0905 13.2H82.5465ZM80.7945 17.424L78.6825 23.496H82.9305L80.8425 17.424H80.7945ZM100.662 13.2H104.022V28.512L101.238 30.12H93.7263L90.9423 28.512V13.2H94.3023V27H100.662V13.2ZM108.099 21.48V14.688L110.883 13.08H116.955L119.739 14.688V17.88H116.379V15.96H111.459V19.968H116.955L119.739 21.576V28.512L116.955 30.12H110.643L107.859 28.512V25.32H111.219V27.24H116.379V23.088H110.883L108.099 21.48ZM131.601 13.2L137.601 30H134.289L133.017 26.376H126.729L125.457 30H122.145L128.145 13.2H131.601ZM129.849 17.424L127.737 23.496H131.985L129.897 17.424H129.849ZM153.077 28.392L150.293 30H139.997V13.2H150.293L153.077 14.808V28.392ZM143.357 16.08V27.12H149.717V16.08H143.357ZM170.233 28.512L167.449 30.12H159.937L157.153 28.512V14.688L159.937 13.08H167.449L170.233 14.688V28.512ZM160.513 15.96V27.24H166.873V15.96H160.513Z" fill="white"/>
<path d="M225.588 44.5465C236.64 44.5465 245.599 35.0742 245.599 23.3895C245.599 11.7048 236.64 2.23242 225.588 2.23242C214.536 2.23242 205.577 11.7048 205.577 23.3895C205.577 35.0742 214.536 44.5465 225.588 44.5465Z" fill="#66525B"/>
<path d="M226.661 45.4111C238.586 44.9004 248 35.084 248 23.0397C248 10.6685 237.966 0.639648 225.588 0.639648C215.304 0.639648 206.638 7.56259 204 17H206.506C209.068 8.90627 216.642 3.03965 225.588 3.03965C236.64 3.03965 245.599 11.994 245.599 23.0397C245.599 33.7748 237.282 42.4752 226.661 42.9592V44.3033V45.4111Z" fill="white"/>
<path d="M225.589 40.3151C234.43 40.3151 241.597 32.7372 241.597 23.3895C241.597 14.0417 234.43 6.46387 225.589 6.46387C216.747 6.46387 209.58 14.0417 209.58 23.3895C209.58 32.7372 216.747 40.3151 225.589 40.3151Z" fill="#EA505C"/>
<path d="M235.194 30.0129L228.93 23.3899L235.194 16.7669L231.853 13.2345L225.589 19.8575L219.324 13.2345L215.983 16.7669L222.248 23.3899L215.983 30.0129L219.324 33.5453L225.589 26.9223L231.853 33.5453L235.194 30.0129Z" fill="#FEFFFF"/>
<path d="M228.525 37.2373C219.673 37.2373 212.497 29.6584 212.497 20.3095C212.497 16.4198 213.742 12.8389 215.831 9.98041C212.032 13.0758 209.583 17.9281 209.583 23.3873C209.583 32.7363 216.759 40.3151 225.611 40.3151C230.78 40.3151 235.337 37.7311 238.268 33.7193C235.561 35.925 232.208 37.2373 228.525 37.2373Z" fill="#D64355"/>
<defs>
<linearGradient id="paint0_linear_414_2227" x1="114.998" y1="192.464" x2="114.998" y2="21.7639" gradientUnits="userSpaceOnUse">
<stop stop-color="#F4CC22"/>
<stop offset="1" stop-color="#F8B51C"/>
</linearGradient>
</defs>
</svg>
