<svg width="520" height="323" viewBox="0 0 520 323" fill="none" xmlns="http://www.w3.org/2000/svg">
<path d="M198.546 41.8471H327.455C331.175 41.8471 334.514 40.1925 336.835 37.5739C338.927 35.2142 340.2 32.0654 340.2 28.6172V7.13788C340.2 4.23691 337.931 1.8 335.029 1.8H190.971C188.069 1.8 185.8 4.23685 185.8 7.13788V28.6172C185.8 35.8771 191.461 41.8471 198.546 41.8471Z" fill="#66525B" stroke="white" stroke-width="2.4"/>
<path d="M1.07341 33.4318C0.48965 22.0004 9.60105 12.4119 21.0474 12.4119H498.876C510.351 12.4119 519.473 22.0466 518.846 33.5045L504.041 304.093C503.461 314.698 494.692 323 484.071 323H34.8653C24.2161 323 15.4344 314.655 14.8913 304.02L1.07341 33.4318Z" fill="white"/>
<path d="M499.684 21.4518H20.4835C13.6055 21.4518 8.13491 27.2213 8.50048 34.0896L22.7807 302.381C23.1197 308.751 28.3841 313.743 34.7637 313.743H484.384C490.746 313.743 496.002 308.778 496.364 302.426L511.664 34.135C512.057 27.2502 506.58 21.4518 499.684 21.4518Z" fill="#F6BE1E" stroke="#66525B" stroke-width="8"/>
<path d="M26.6949 51.4249C26.3722 45.6903 30.9355 40.863 36.6792 40.863H482.696C488.456 40.863 493.025 45.7158 492.678 51.4649L478.616 284.699C478.297 289.979 473.923 294.097 468.634 294.097H49.8043C44.4997 294.097 40.1181 289.955 39.8201 284.659L26.6949 51.4249Z" fill="#EA8903"/>
<path d="M332.467 44.9981H192.533C185.611 44.9981 180 38.9898 180 31.5778V7.61611C180 5.06669 181.93 3 184.311 3H340.689C343.07 3 345 5.06669 345 7.61611V31.5778C345 35.0913 343.739 38.2896 341.675 40.6816C339.385 43.336 336.107 44.9981 332.467 44.9981Z" fill="#66525B"/>
<g style="mix-blend-mode:multiply" opacity="0.44">
<path d="M332.467 40.2936H192.533C185.611 40.2936 180 34.2854 180 26.8734V31.58C180 38.9916 185.611 45.0002 192.533 45.0002H332.467C336.107 45.0002 339.386 43.3381 341.675 40.6837C343.739 38.2914 345 35.0935 345 31.58V26.8734C345 30.3869 343.739 33.5852 341.675 35.9772C339.386 38.6315 336.107 40.2936 332.467 40.2936Z" fill="#66525B"/>
</g>
<path d="M201.792 32H198.096L194.496 25.664H192.408V32H189.048V15.2H198.144L200.928 16.808V24.056L198.144 25.664L201.792 32ZM192.408 18.08V22.784H197.568V18.08H192.408ZM208.369 24.8V29.12H215.065V32H205.009V15.2H215.065V18.08H208.369V21.92H213.625V24.8H208.369ZM218.181 23.48V16.688L220.965 15.08H227.037L229.821 16.688V19.88H226.461V17.96H221.541V21.968H227.037L229.821 23.576V30.512L227.037 32.12H220.725L217.941 30.512V27.32H221.301V29.24H226.461V25.088H220.965L218.181 23.48ZM243.627 15.2H246.987V30.512L244.203 32.12H236.691L233.907 30.512V15.2H237.267V29H243.627V15.2ZM251.063 32V15.2H254.423V29.12H260.159V32H251.063ZM267.832 18.08V32H264.472V18.08H259.936V15.2H272.368V18.08H267.832ZM281.597 15.2L287.597 32H284.285L283.013 28.376H276.725L275.453 32H272.141L278.141 15.2H281.597ZM279.845 19.424L277.733 25.496H281.981L279.893 19.424H279.845ZM303.073 30.392L300.289 32H289.993V15.2H300.289L303.073 16.808V30.392ZM293.353 18.08V29.12H299.713V18.08H293.353ZM320.229 30.512L317.445 32.12H309.933L307.149 30.512V16.688L309.933 15.08H317.445L320.229 16.688V30.512ZM310.509 17.96V29.24H316.869V17.96H310.509ZM324.306 23.48V16.688L327.09 15.08H333.162L335.946 16.688V19.88H332.586V17.96H327.666V21.968H333.162L335.946 23.576V30.512L333.162 32.12H326.85L324.066 30.512V27.32H327.426V29.24H332.586V25.088H327.09L324.306 23.48Z" fill="white"/>
</svg>
