<svg width="520" height="323" viewBox="0 0 520 323" fill="none" xmlns="http://www.w3.org/2000/svg">
<path d="M198.546 41.8471H327.455C331.175 41.8471 334.514 40.1925 336.835 37.5739C338.927 35.2142 340.2 32.0654 340.2 28.6172V7.13788C340.2 4.23691 337.931 1.8 335.029 1.8H190.971C188.069 1.8 185.8 4.23685 185.8 7.13788V28.6172C185.8 35.8771 191.461 41.8471 198.546 41.8471Z" fill="#66525B" stroke="white" stroke-width="2.4"/>
<path d="M1.07341 33.4318C0.48965 22.0004 9.60105 12.4119 21.0474 12.4119H498.876C510.351 12.4119 519.473 22.0466 518.846 33.5045L504.041 304.093C503.461 314.698 494.692 323 484.071 323H34.8653C24.2161 323 15.4344 314.655 14.8913 304.02L1.07341 33.4318Z" fill="white"/>
<path d="M499.684 21.4518H20.4835C13.6055 21.4518 8.13491 27.2213 8.50048 34.0896L22.7807 302.381C23.1197 308.751 28.3841 313.743 34.7637 313.743H484.384C490.746 313.743 496.002 308.778 496.364 302.426L511.664 34.135C512.057 27.2502 506.58 21.4518 499.684 21.4518Z" fill="#F6BE1E" stroke="#66525B" stroke-width="8"/>
<path d="M26.6949 51.4249C26.3722 45.6903 30.9355 40.863 36.6792 40.863H482.696C488.456 40.863 493.025 45.7158 492.678 51.4649L478.616 284.699C478.297 289.979 473.923 294.097 468.634 294.097H49.8043C44.4997 294.097 40.1181 289.955 39.8201 284.659L26.6949 51.4249Z" fill="#EA8903"/>
<path d="M327.454 45.351H198.546C192.169 45.351 187 39.2922 187 31.818V7.65491C187 5.08405 188.778 3 190.971 3H335.029C337.222 3 339 5.08405 339 7.65491V31.818C339 35.361 337.838 38.5861 335.937 40.9982C333.828 43.6749 330.808 45.351 327.454 45.351Z" fill="#66525B"/>
<g style="mix-blend-mode:multiply" opacity="0.44">
<path d="M327.454 40.607H198.546C192.169 40.607 187 34.5482 187 27.074V31.8201C187 39.294 192.169 45.3531 198.546 45.3531H327.454C330.808 45.3531 333.828 43.677 335.937 41.0004C337.838 38.5879 339 35.3631 339 31.8201V27.074C339 30.617 337.838 33.8421 335.937 36.2542C333.828 38.9309 330.808 40.607 327.454 40.607Z" fill="#66525B"/>
</g>
<path d="M209.34 18.2565V32.1765H205.98V18.2565H201.444V15.3765H213.876V18.2565H209.34ZM226.244 15.3765H229.604V30.6885L226.82 32.2965H219.308L216.524 30.6885V15.3765H219.884V29.1765H226.244V15.3765ZM240.137 18.2565V32.1765H236.777V18.2565H232.241V15.3765H244.673V18.2565H240.137ZM260.401 30.6885L257.617 32.2965H250.105L247.321 30.6885V16.8645L250.105 15.2565H257.617L260.401 16.8645V30.6885ZM250.681 18.1365V29.4165H257.041V18.1365H250.681ZM277.222 32.1765H273.526L269.926 25.8405H267.838V32.1765H264.478V15.3765H273.574L276.358 16.9845V24.2325L273.574 25.8405L277.222 32.1765ZM267.838 18.2565V22.9605H272.998V18.2565H267.838ZM280.438 32.1765V15.3765H283.798V32.1765H280.438ZM295.644 15.3765L301.644 32.1765H298.332L297.06 28.5525H290.772L289.5 32.1765H286.188L292.188 15.3765H295.644ZM293.892 19.6005L291.78 25.6725H296.028L293.94 19.6005H293.892ZM304.04 32.1765V15.3765H307.4V32.1765H304.04ZM311.47 23.6565V16.8645L314.254 15.2565H320.326L323.11 16.8645V20.0565H319.75V18.1365H314.83V22.1445H320.326L323.11 23.7525V30.6885L320.326 32.2965H314.014L311.23 30.6885V27.4965H314.59V29.4165H319.75V25.2645H314.254L311.47 23.6565Z" fill="white"/>
</svg>
